REM DIRINDEX 1\2,1\3\5,1\3\6,1\4\7,1\4\8
REM DIRNAME folder01,folder02,folder03,folder04,folder05,folder06,folder07,folder08
TITLE ""
FILE "EG_E3_08.mp3" MP3
  TRACK 01 AUDIO
    TITLE "0:"
    INDEX 01 00:00:00
  TRACK 02 AUDIO
    TITLE "5:cjc139_1353"
    INDEX 01 00:00:17
  TRACK 03 AUDIO
    TITLE "6:cjc139_1354"
    INDEX 01 00:02:32
  TRACK 04 AUDIO
    TITLE "5:cjc139_1355"
    INDEX 01 00:05:14
  TRACK 05 AUDIO
    TITLE "6:cjc139_1356"
    INDEX 01 00:07:56
  TRACK 06 AUDIO
    TITLE "5:cjc139_1357"
    INDEX 01 00:10:43
  TRACK 07 AUDIO
    TITLE "6:cjc139_1358"
    INDEX 01 00:13:10
  TRACK 08 AUDIO
    TITLE "5:cjc139_1359"
    INDEX 01 00:15:68
  TRACK 09 AUDIO
    TITLE "6:cjc139_1360"
    INDEX 01 00:18:07
  TRACK 10 AUDIO
    TITLE "5:cjc139_1361"
    INDEX 01 00:20:65
  TRACK 11 AUDIO
    TITLE "6:cjc139_1362"
    INDEX 01 00:23:65
  TRACK 12 AUDIO
    TITLE "5:cjc139_1363"
    INDEX 01 00:26:50
  TRACK 13 AUDIO
    TITLE "6:cjc139_1364"
    INDEX 01 00:28:25
  TRACK 14 AUDIO
    TITLE "5:cjc139_1365"
    INDEX 01 00:31:10
  TRACK 15 AUDIO
    TITLE "6:cjc139_1366"
    INDEX 01 00:33:28
  TRACK 16 AUDIO
    TITLE "5:cjc139_1367"
    INDEX 01 00:36:13
  TRACK 17 AUDIO
    TITLE "6:cjc139_1368"
    INDEX 01 00:39:35
  TRACK 18 AUDIO
    TITLE "5:cjc139_1369"
    INDEX 01 00:42:19
  TRACK 19 AUDIO
    TITLE "6:cjc139_1370"
    INDEX 01 00:44:54
  TRACK 20 AUDIO
    TITLE "5:cjc139_1371"
    INDEX 01 00:47:40
  TRACK 21 AUDIO
    TITLE "6:cjc139_1372"
    INDEX 01 00:49:69
  TRACK 22 AUDIO
    TITLE "5:cjc139_1373"
    INDEX 01 00:52:53
  TRACK 23 AUDIO
    TITLE "6:cjc139_1374"
    INDEX 01 00:55:30
  TRACK 24 AUDIO
    TITLE "5:cjc139_1375"
    INDEX 01 00:58:15
  TRACK 25 AUDIO
    TITLE "6:cjc139_1376"
    INDEX 01 01:01:44
  TRACK 26 AUDIO
    TITLE "5:cjc139_1377"
    INDEX 01 01:04:27
  TRACK 27 AUDIO
    TITLE "6:cjc139_1378"
    INDEX 01 01:07:29
  TRACK 28 AUDIO
    TITLE "5:cjc139_1379"
    INDEX 01 01:10:12
  TRACK 29 AUDIO
    TITLE "6:cjc139_1380"
    INDEX 01 01:12:44
  TRACK 30 AUDIO
    TITLE "5:cjc139_1381"
    INDEX 01 01:15:31
  TRACK 31 AUDIO
    TITLE "6:cjc139_1382"
    INDEX 01 01:18:23
  TRACK 32 AUDIO
    TITLE "5:cjc139_1383"
    INDEX 01 01:21:10
  TRACK 33 AUDIO
    TITLE "6:cjc139_1384"
    INDEX 01 01:23:69
  TRACK 34 AUDIO
    TITLE "5:cjc139_1385"
    INDEX 01 01:26:54
  TRACK 35 AUDIO
    TITLE "6:cjc139_1386"
    INDEX 01 01:28:35
  TRACK 36 AUDIO
    TITLE "5:cjc139_1387"
    INDEX 01 01:31:20
  TRACK 37 AUDIO
    TITLE "6:cjc139_1388"
    INDEX 01 01:34:34
  TRACK 38 AUDIO
    TITLE "5:cjc139_1389"
    INDEX 01 01:37:17
  TRACK 39 AUDIO
    TITLE "6:cjc139_1390"
    INDEX 01 01:39:29
  TRACK 40 AUDIO
    TITLE "5:cjc139_1391"
    INDEX 01 01:42:10
  TRACK 41 AUDIO
    TITLE "6:cjc139_1392"
    INDEX 01 01:44:66
  TRACK 42 AUDIO
    TITLE "5:cjc139_1393"
    INDEX 01 01:47:50
  TRACK 43 AUDIO
    TITLE "6:cjc139_1394"
    INDEX 01 01:50:00
  TRACK 44 AUDIO
    TITLE "5:cjc139_1395"
    INDEX 01 01:52:59
  TRACK 45 AUDIO
    TITLE "6:cjc139_1396"
    INDEX 01 01:54:66
  TRACK 46 AUDIO
    TITLE "5:cjc139_1397"
    INDEX 01 01:57:53
  TRACK 47 AUDIO
    TITLE "6:cjc139_1398"
    INDEX 01 01:59:30
  TRACK 48 AUDIO
    TITLE "5:cjc139_1399"
    INDEX 01 02:02:15
  TRACK 49 AUDIO
    TITLE "6:cjc139_1400"
    INDEX 01 02:04:15
  TRACK 50 AUDIO
    TITLE "5:cjc139_1401"
    INDEX 01 02:07:02
  TRACK 51 AUDIO
    TITLE "6:cjc139_1402"
    INDEX 01 02:09:21
  TRACK 52 AUDIO
    TITLE "5:cjc139_1403"
    INDEX 01 02:12:05
  TRACK 53 AUDIO
    TITLE "6:cjc139_1404"
    INDEX 01 02:14:20
  TRACK 54 AUDIO
    TITLE "5:cjc139_1405"
    INDEX 01 02:17:04
  TRACK 55 AUDIO
    TITLE "6:cjc139_1406"
    INDEX 01 02:20:07
  TRACK 56 AUDIO
    TITLE "5:cjc139_1407"
    INDEX 01 02:22:64
  TRACK 57 AUDIO
    TITLE "6:cjc139_1408"
    INDEX 01 02:26:25
  TRACK 58 AUDIO
    TITLE "5:cjc139_1409"
    INDEX 01 02:29:09
  TRACK 59 AUDIO
    TITLE "6:cjc139_1410"
    INDEX 01 02:31:55
  TRACK 60 AUDIO
    TITLE "5:cjc139_1411"
    INDEX 01 02:34:38
  TRACK 61 AUDIO
    TITLE "6:cjc139_1412"
    INDEX 01 02:37:34
  TRACK 62 AUDIO
    TITLE "5:cjc139_1413"
    INDEX 01 02:38:55
  TRACK 63 AUDIO
    TITLE "6:cjc139_1414"
    INDEX 01 02:41:62
  TRACK 64 AUDIO
    TITLE "5:cjc139_1415"
    INDEX 01 02:44:46
  TRACK 65 AUDIO
    TITLE "6:cjc139_1416"
    INDEX 01 02:47:41
  TRACK 66 AUDIO
    TITLE "5:cjc139_1417"
    INDEX 01 02:48:66
  TRACK 67 AUDIO
    TITLE "6:cjc139_1418"
    INDEX 01 02:51:54
  TRACK 68 AUDIO
    TITLE "5:cjc139_1419"
    INDEX 01 02:54:37
  TRACK 69 AUDIO
    TITLE "6:cjc139_1420"
    INDEX 01 02:56:36
  TRACK 70 AUDIO
    TITLE "5:cjc139_1421"
    INDEX 01 02:59:20
  TRACK 71 AUDIO
    TITLE "6:cjc139_1422"
    INDEX 01 03:01:25
  TRACK 72 AUDIO
    TITLE "5:cjc139_1423"
    INDEX 01 03:04:10
  TRACK 73 AUDIO
    TITLE "6:cjc139_1424"
    INDEX 01 03:06:48
  TRACK 74 AUDIO
    TITLE "5:cjc139_1425"
    INDEX 01 03:09:34
  TRACK 75 AUDIO
    TITLE "6:cjc139_1426"
    INDEX 01 03:12:00
  TRACK 76 AUDIO
    TITLE "0:"
    INDEX 01 03:14:65
